<svg xmlns="http://www.w3.org/2000/svg" xmlns:xlink="http://www.w3.org/1999/xlink" width="320" height="177" viewBox="0 0 320 177"><rect x="0" y="0" width="320" height="177" rx="22" fill="#0F0F0E" /><text x="12" y="24" font-family="Roboto, sans-serif" font-size="11" font-weight="400" fill="#B4B2A9" text-anchor="start" >Latest update 13:00</text><text x="286" y="24" font-family="Roboto, sans-serif" font-size="11" font-weight="400" fill="#B4B2A9" text-anchor="end" >Resets 13:45</text><g transform="translate(291 11) scale(0.75)"><path d="M17.65 6.35A7.95 7.95 0 0012 4a8 8 0 107.93 9h-2.02A6 6 0 1112 6c1.66 0 3.14.69 4.22 1.78L13 11h7V4z" fill="#F0EEE6"/></g><text x="12" y="47" font-family="Roboto, sans-serif" font-size="13" font-weight="600" fill="#F0EEE6" text-anchor="start" >Codex Plus</text><text x="308" y="47" font-family="Roboto, sans-serif" font-size="14" font-weight="600" fill="#6FBF73" text-anchor="end" >72%</text><rect x="12" y="55" width="296" height="5" rx="2.5" fill="#FFFFFF" fill-opacity=".25"/><rect x="12" y="55" width="213.12" height="5" rx="2.5" fill="#6FBF73" /><text x="12" y="84" font-family="Roboto, sans-serif" font-size="13" font-weight="600" fill="#F0EEE6" text-anchor="start" >Codex Plus</text><text x="308" y="84" font-family="Roboto, sans-serif" font-size="14" font-weight="600" fill="#E0A33E" text-anchor="end" >41%</text><rect x="12" y="92" width="296" height="5" rx="2.5" fill="#FFFFFF" fill-opacity=".25"/><rect x="12" y="92" width="121.36" height="5" rx="2.5" fill="#E0A33E" /><text x="12" y="121" font-family="Roboto, sans-serif" font-size="13" font-weight="600" fill="#F0EEE6" text-anchor="start" >Claude Pro</text><text x="308" y="121" font-family="Roboto, sans-serif" font-size="14" font-weight="600" fill="#6FBF73" text-anchor="end" >58%</text><rect x="12" y="129" width="296" height="5" rx="2.5" fill="#FFFFFF" fill-opacity=".25"/><rect x="12" y="129" width="171.68" height="5" rx="2.5" fill="#6FBF73" /><text x="18" y="167" font-family="Roboto, sans-serif" font-size="11" font-weight="400" fill="#B4B2A9" text-anchor="start" >+1 more</text></svg>